<?xml version="1.0" encoding="UTF-8"?>
<svg id="Layer_2" data-name="Layer 2" xmlns="http://www.w3.org/2000/svg" viewBox="0 0 879.89 406.32">
  <g id="Layer_1-2" data-name="Layer 1">
    <g>
      <path d="M876.27,73.77c-.54-1.35-1.23-2.65-2.04-3.88-.54-1.35-1.23-2.65-2.04-3.87-.54-1.35-1.23-2.65-2.04-3.87-.54-1.35-1.23-2.65-2.04-3.87-.54-1.35-1.23-2.65-2.04-3.87-.54-1.35-1.23-2.65-2.04-3.87-.54-1.35-1.23-2.65-2.04-3.88-.54-1.35-1.23-2.65-2.04-3.87-.54-1.35-1.23-2.65-2.04-3.87-.54-1.35-1.23-2.65-2.04-3.87-.54-1.35-1.23-2.65-2.04-3.87-.54-1.35-1.23-2.65-2.04-3.87-.54-1.35-1.23-2.65-2.04-3.88-.54-1.35-1.23-2.65-2.04-3.87-.54-1.35-1.23-2.65-2.04-3.87-.04-.11-.08-.21-.12-.32-.57-1.36-1.28-2.66-2.13-3.88-2.94-4.25-7.34-7.29-12.29-8.57-.71-.18-1.43-.33-2.15-.44h-.06s-.05-.02-.06-.02c-.82-.12-1.67-.23-2.53-.32-2.59-.27-5.36-.41-8.27-.41-22.11,0-41.08,7-56.38,20.82-.89.8-1.76,1.63-2.62,2.47-2.57,2.53-4.97,5.23-7.22,8.11-.75.96-1.48,1.94-2.2,2.93-1.81,2.52-3.49,5.17-5.07,7.93-.25-.47-.5-.93-.77-1.39-.64-1.32-1.31-2.62-2.04-3.88-.64-1.32-1.31-2.62-2.04-3.87-.28-.57-.55-1.14-.84-1.7-1.2-2.3-2.55-4.49-4.04-6.57-5.74-8-13.4-14.24-22.77-18.58-6.74-3.12-14.33-5.08-22.64-5.87-2.77-.26-5.62-.39-8.55-.39-8.98,0-17.71,1.18-26.09,3.53-2.29.64-4.54,1.37-6.78,2.18-1.49.54-2.96,1.12-4.42,1.74-8.64,3.66-16.56,8.33-23.63,13.94-2.36,1.87-4.62,3.84-6.78,5.92-1.18,1.13-2.33,2.3-3.45,3.49-3.06,3.26-5.86,6.73-8.43,10.38-.03-.05-.05-.1-.08-.14-.63-1.33-1.32-2.62-2.04-3.88-.63-1.33-1.32-2.62-2.04-3.87-1.43-2.99-3.08-5.8-4.97-8.43-5.74-8-13.4-14.24-22.77-18.58-6.74-3.12-14.33-5.08-22.64-5.87-2.77-.26-5.62-.39-8.55-.39-8.98,0-17.71,1.18-26.09,3.53-2.29.64-4.54,1.37-6.78,2.18-1.49.54-2.96,1.12-4.42,1.74-8.65,3.66-16.56,8.33-23.63,13.94-2.36,1.87-4.62,3.84-6.78,5.92-1.13,1.08-2.22,2.2-3.3,3.33-.07-.11-.14-.22-.2-.33-.61-1.33-1.29-2.62-2.04-3.87,0,0,0,0,0,0-1.16-2.5-2.57-4.88-4.21-7.1-.99-1.33-2.05-2.61-3.2-3.81-1.41-1.48-2.93-2.86-4.55-4.12l-1.26-.98c-.43-.33-.85-.66-1.28-.97-.42-.31-.85-.61-1.27-.9-1.26-.86-2.52-1.61-3.79-2.27-.85-.44-1.71-.83-2.58-1.17-.44-.17-.88-.34-1.32-.49-.89-.31-1.8-.57-2.73-.79-.93-.22-1.9-.41-2.89-.55-.5-.07-1-.14-1.52-.19-1.55-.16-3.18-.24-4.91-.23,0,0-47.98-.04-104.96-.1-2.19,0-4.4,0-6.61,0-2.22,0-4.44,0-6.68,0-3.35,0-6.73,0-10.11,0-3.39,0-6.79,0-10.19,0s-6.81,0-10.22,0c-2.27,0-4.54,0-6.81,0-1.13,0-2.27,0-3.4,0-5.66,0-11.28-.01-16.85-.02-2.23,0-4.44,0-6.65,0-2.2,0-4.4,0-6.57,0-3.27,0-6.5,0-9.69,0-7.45,0-14.69-.01-21.61-.02-2.97,0-5.88,0-8.72,0-3.79,0-7.47,0-11.02-.01-1.77,0-3.51,0-5.21,0-2.56,0-5.03,0-7.42,0-1.59,0-3.15,0-4.66,0-20.41-.02-33.35-.03-33.35-.03-4.21,0-8.33.5-12.28,1.45-2.26.54-4.47,1.23-6.61,2.06-2.68,1.03-5.26,2.28-7.72,3.72h0s0,0,0,0c-1.67.98-3.28,2.05-4.83,3.21s-3.03,2.4-4.44,3.72c-.4.37-.81.74-1.2,1.12.03.06.05.12.08.18,0,0,0-.01-.01-.02-.02-.05-.05-.11-.07-.17-.15-.32-.3-.64-.45-.96-.51-1.04-1.07-2.05-1.69-3.04-.62-.99-1.29-1.95-2.03-2.89-.79-1.01-1.63-1.96-2.52-2.86-.44-.45-.9-.88-1.36-1.31-1.86-1.68-3.89-3.14-6.06-4.35-4.87-2.72-10.4-4.18-16.18-4.18-5.17,0-10.29.89-15.13,2.57-1.21.42-2.4.89-3.57,1.42-1.17.52-2.32,1.09-3.45,1.71s-2.23,1.28-3.3,2c-.54.36-1.06.72-1.59,1.1-.52.38-1.03.77-1.54,1.17-1.51,1.2-2.94,2.5-4.28,3.87-.89.92-1.75,1.87-2.56,2.86-4.47,5.43-7.68,11.87-9.29,18.76L2.65,133.69c-.01.05-.02.1-.04.15-.01.05-.02.1-.04.15-.75,3.39-1.33,6.73-1.76,9.99-.14,1.09-.26,2.17-.37,3.24-.7,7.14-.59,13.93.33,20.29.77,5.33,2.03,10.34,3.76,14.99.61,1.63,1.28,3.21,2.01,4.75.73,1.54,1.51,3.04,2.36,4.49.64,1.32,1.32,2.62,2.04,3.87.64,1.32,1.32,2.62,2.04,3.87.64,1.32,1.32,2.62,2.04,3.87.64,1.32,1.32,2.62,2.04,3.87.64,1.32,1.32,2.62,2.04,3.88.64,1.32,1.32,2.62,2.04,3.87.64,1.32,1.32,2.62,2.04,3.87.64,1.32,1.32,2.62,2.04,3.87.64,1.32,1.32,2.62,2.04,3.87.64,1.32,1.32,2.62,2.04,3.87.64,1.32,1.32,2.62,2.04,3.88.64,1.32,1.32,2.62,2.04,3.87.64,1.32,1.32,2.62,2.04,3.87.64,1.32,1.32,2.62,2.04,3.87.64,1.32,1.32,2.62,2.04,3.87,1.28,2.64,2.7,5.16,4.32,7.53,5.6,8.19,13.27,14.6,22.79,19.05,9.08,4.25,19.64,6.41,31.36,6.41,13.07,0,25.67-2.55,37.46-7.58,11.61-4.96,21.92-11.77,30.65-20.24,5-4.85,9.42-10.19,13.25-15.96.36.68.73,1.36,1.12,2.03.64,1.32,1.31,2.62,2.04,3.87.64,1.32,1.31,2.62,2.04,3.88,2.29,4.74,5.16,9.05,8.61,12.85,5.09,5.62,11.26,9.97,18.33,12.92,6.87,2.87,14.5,4.33,22.67,4.33,7.58,0,15.35-1.27,23.08-3.78,2.61,2.27,5.98,3.55,9.49,3.55h44.73c6.82,0,12.71-4.76,14.14-11.43l1.17-5.47c2.32,3.35,5.17,6.35,8.45,8.82,6.69,5.03,14.68,7.69,23.09,7.69h106.73c.12.21.25.41.37.61.6,1.33,1.28,2.62,2.04,3.87.6,1.33,1.28,2.62,2.04,3.88.6,1.33,1.28,2.62,2.04,3.87.6,1.33,1.28,2.62,2.04,3.87.6,1.33,1.28,2.62,2.04,3.87.6,1.33,1.28,2.62,2.04,3.87.6,1.33,1.28,2.62,2.04,3.87.6,1.33,1.28,2.62,2.04,3.88.6,1.33,1.28,2.62,2.04,3.87.6,1.33,1.28,2.62,2.04,3.87.6,1.33,1.28,2.62,2.04,3.87.6,1.33,1.28,2.62,2.04,3.87.6,1.33,1.28,2.62,2.04,3.87.6,1.33,1.28,2.62,2.04,3.88.6,1.33,1.28,2.62,2.04,3.87,1.12,2.47,2.5,4.83,4.17,7.02,7.13,9.37,18.06,14.76,29.77,14.76h26.73c.15.27.31.53.46.79.61,1.33,1.29,2.62,2.04,3.87.61,1.33,1.29,2.62,2.04,3.87.61,1.33,1.29,2.62,2.04,3.87.61,1.33,1.29,2.62,2.04,3.87.61,1.33,1.29,2.62,2.04,3.87.61,1.33,1.29,2.62,2.04,3.87,4.92,10.76,14.63,19.2,27.04,21.98l2.23.51c8.48,1.9,17.47.9,25.32-2.82,10.97-5.2,18.78-14.98,21.44-26.81l3.8-16.95s.04,0,.05,0c.04.07.08.14.12.21.61,1.32,1.28,2.62,2.04,3.87.61,1.32,1.28,2.62,2.04,3.87.61,1.32,1.28,2.62,2.04,3.87.61,1.32,1.28,2.62,2.04,3.88.61,1.32,1.28,2.62,2.04,3.87.61,1.32,1.28,2.62,2.04,3.87,2.52,5.45,6.32,10.41,11.37,14.36l1.8,1.41c6.85,5.35,15.4,8.3,24.09,8.3,12.14,0,23.39-5.48,30.86-15.04l97.11-124.24c8.2-10.5,10.49-24.2,6.17-36.8-.93-3.48-2.35-6.72-4.16-9.69-.61-1.34-1.29-2.63-2.04-3.88-.61-1.34-1.29-2.63-2.04-3.87-.14-.3-.27-.6-.42-.9,2.36-2.01,4.1-4.75,4.79-7.96l11.93-55.52c.04-.19.08-.39.11-.58.32-1.83.82-3.37,1.51-4.57,1.1-1.93,2.02-3.02,2.6-3.6.35-.35.85-.65,1.51-.91.82-.32,1.61-.48,2.38-.48.85,0,1.3.07,1.46.1,1.13.21,2.28.32,3.41.32,8.59,0,16.13-6.09,17.94-14.47l7.3-33.92c1.23-5.69.08-11.69-3.15-16.53ZM461.9,66.56c.16-.38.3-.76.46-1.13-.25.38-.51.76-.77,1.13-.06.09-.12.18-.18.27.06-.09.12-.18.18-.27.26-.38.52-.75.76-1.13.17-.4.34-.8.53-1.19.11-.24.23-.47.34-.71-.11.24-.23.47-.34.71-.18.4-.35.79-.52,1.19.54-.85,1.03-1.72,1.5-2.6.6-1.12,1.14-2.25,1.63-3.41.2-.48.4-.95.58-1.43,0,0,0,0,0,0,0,0,0,0,0,0,.3-.53.61-1.05.92-1.58.5-.85,1.02-1.69,1.56-2.52.45-.69.9-1.38,1.37-2.05.39-.57.78-1.13,1.19-1.69.35-.48.7-.95,1.06-1.42.3-.4.61-.79.92-1.18.23-.29.47-.58.7-.88.12-.14.23-.29.35-.43.02-.03.04-.05.06-.08.05-.06.09-.12.14-.17,1.89-2.27,3.92-4.44,6.09-6.51,7.42-7.12,16.1-12.77,26.04-16.98,9.94-4.2,20.49-6.3,31.66-6.3,4.7,0,9.1.4,13.19,1.18,4.3.82,8.28,2.07,11.92,3.75,1.37.63,2.67,1.33,3.93,2.06,2.68,1.55,5.13,3.32,7.33,5.31,1.61,1.46,3.1,3.04,4.47,4.73.47.58.93,1.16,1.36,1.77.56.79,1.1,1.6,1.61,2.43.76,1.24,1.45,2.55,2.09,3.89.57,1.2,1.11,2.43,1.59,3.71.43,1.15.8,2.34,1.15,3.56.32,1.12.61,2.28.86,3.46.24,1.11.45,2.25.63,3.41.07.44.15.88.21,1.33.09.69.17,1.38.24,2.08.11,1.11.19,2.23.25,3.37.06,1.13.08,2.27.08,3.42,0,.37,0,.75,0,1.12-.09,5.84-.85,12.06-2.29,18.68l-2.05,9.57-9.41,43.88h-44.74l2.3-10.47c-5.05,3.18-10.43,5.74-16.18,7.61-6.35,2.07-12.58,3.1-18.7,3.1s-11.97-1.07-17.09-3.21c-5.13-2.14-9.52-5.24-13.19-9.29-3.67-4.05-6.46-8.87-8.37-14.45-1.91-5.58-2.87-11.74-2.87-18.47,0-9.41,1.83-18.46,5.44-27.15ZM141.15,157.3c-4.36,9.64-10.29,18.09-17.78,25.35-7.5,7.27-16.25,13.04-26.27,17.32-10.02,4.28-20.61,6.42-31.77,6.42-9.63,0-18.05-1.68-25.23-5.05-1.88-.88-3.65-1.86-5.33-2.92-.85-.54-1.68-1.11-2.47-1.7-.82-.6-1.6-1.24-2.36-1.89-.81-.69-1.58-1.42-2.32-2.17-.78-.79-1.53-1.61-2.24-2.46-.76-.91-1.49-1.85-2.17-2.83-.03-.04-.06-.08-.09-.13-.72-1.05-1.38-2.15-2.01-3.27-.73-1.3-1.41-2.63-2.02-4.03-.71-1.64-1.34-3.34-1.9-5.11-.66-2.11-1.21-4.32-1.64-6.62-.17-.9-.33-1.82-.46-2.75-.31-2.13-.5-4.32-.59-6.57-.24-6.43.43-13.36,2-20.77.07-.33.13-.65.2-.99l23.91-98.29c.27-1.19.62-2.34,1.02-3.46,4.41-12.4,16.19-20.89,29.61-20.89h0c2.22,0,4.33.38,6.28,1.07,2.45.87,4.64,2.22,6.48,3.94,1.26,1.17,2.35,2.51,3.24,3.98.74,1.21,1.34,2.5,1.79,3.85.4,1.21.69,2.48.84,3.77.14,1.24.15,2.51.03,3.8-.08.92-.23,1.84-.46,2.77l-.31,1.18-.15.55-.96,3.6-1.18,4.4-.89,3.35-.35,1.3-1.32,4.94-1.41,5.28-1.52,5.68-5.06,18.94c4.27-1.7,8.71-3.05,13.35-4.02,4.74-1,9.48-1.49,14.22-1.49,6.88,0,13.04,1,18.47,2.98,5.43,1.99,10.01,4.93,13.76,8.83,3.75,3.9,6.62,8.68,8.6,14.34,1.99,5.66,2.98,12.09,2.98,19.27,0,10.71-2.18,20.88-6.54,30.51ZM290.28,148.81l-11.47,53.45h-44.73l2.3-10.48c-5.05,3.18-10.44,5.74-16.18,7.61-6.35,2.07-12.58,3.1-18.69,3.1s-11.97-1.07-17.09-3.21c-5.12-2.14-9.52-5.24-13.19-9.29-3.67-4.05-6.47-8.87-8.38-14.45-1.91-5.58-2.87-11.74-2.87-18.47,0-10.25,2.14-20.08,6.42-29.48,4.28-9.41,10.13-17.67,17.55-24.78,7.42-7.11,16.1-12.77,26.04-16.98,6.58-2.78,13.43-4.64,20.54-5.58,3.63-.48,7.34-.73,11.11-.73s7.19.25,10.51.73c5.35.78,10.22,2.17,14.61,4.2,7.11,3.29,12.81,7.91,17.09,13.88,4.28,5.96,7,13.23,8.14,21.79,1.15,8.57.58,18.12-1.72,28.68ZM325.66,201.87c-10.82,0-19.94-7.14-22.84-16.9-3.98-8.21-3.26-18.31,2.73-25.99l72.3-92.49.54-.69H121.69c-.91,0-1.81-.07-2.68-.19-2.78-.38-5.34-1.35-7.59-2.76-1.87-1.18-3.51-2.67-4.87-4.38-.95-1.21-1.76-2.52-2.41-3.93-.55-1.2-.98-2.46-1.28-3.77-.27-1.17-.43-2.37-.47-3.59-.02-.7-.01-1.4.04-2.11v-.02s0-.02,0-.02l.31-1.15.66-2.49c.03-.09.06-.2.08-.3.01-.05.02-.1.03-.15.2-.84.36-1.69.49-2.54,0,0,0,0,0-.01,0,0,0,0,0,0,.03-.07.06-.13.08-.2.29-.76.61-1.49.96-2.21.29-.61.6-1.21.92-1.8.1-.17.21-.34.31-.51,0,0,0,0,0,0,.17-.28.34-.56.51-.83.16-.26.32-.52.49-.77,0,0,0,0,0,0,.03-.05.07-.1.11-.15.11-.15.22-.3.33-.45,0,0,0,0,0,0,0,0,0,0,0,0,.23-.33.46-.66.71-.98,4.25-5.45,10.29-9.35,17.13-10.92,2.19-.5,4.45-.77,6.77-.77,0,0,293.38-.47,295.2-.47,3.09,0,6.2.6,9.14,1.77,2.12.85,4.15,1.98,6.04,3.45l.73.57,1.07.84c1.28,1,2.42,2.12,3.45,3.3,1.09,1.26,2.05,2.59,2.84,4.01.69,1.23,1.26,2.51,1.73,3.82.43,1.22.77,2.46,1.01,3.73.23,1.22.37,2.46.41,3.7.05,1.25,0,2.5-.15,3.74-.15,1.29-.4,2.57-.76,3.84-.09.31-.16.63-.26.94,0,0,0,0,0,.01,0,0,0,.01,0,.02-.26.79-.57,1.57-.92,2.34-.08.19-.19.38-.28.56-.16.33-.31.67-.48.99-.45.85-.95,1.7-1.51,2.51,0,0,0,.01-.01.02,0,0,0,.01,0,.02-.08.11-.17.22-.25.34-.19.26-.37.52-.57.77l-2.42,3.1-3.02,3.87-69.01,88.29h168.02l.35-.36-.35.36h0l-46.15,47.03h0s0,0,0,0h-170.54ZM629.56,166.84l-7.52,35.03-1.55,7.23-1.55,7.23-4.33,20.18c7.97,0,13.92,7.33,12.28,15.13l-1.31,6.23-1.93,9.18c-1.88,8.94-9.76,15.34-18.9,15.34l-.38,2.73s.02.03.03.05l-.09.42-4.25,18.96-1.35,6.03c-1.73,7.71-6.9,13.77-13.52,16.91-4.8,2.28-10.38,3.02-15.97,1.77l-2.22-.49c-12.02-2.7-20.01-13.74-19.24-25.66,0,0,0,0,0,0,.08-1.27.26-2.55.55-3.82l3.79-16.88s.03,0,.05,0h-49.54c-.88,0-1.76-.05-2.62-.13-1.44-.14-2.85-.38-4.22-.73-1.26-.32-2.48-.73-3.66-1.22-1.13-.47-2.23-1.01-3.28-1.62-.21-.12-.41-.24-.62-.36-.82-.5-1.61-1.05-2.37-1.63-.91-.7-1.78-1.45-2.59-2.25-.04-.04-.09-.09-.14-.13-.89-.89-1.73-1.84-2.49-2.84-.23-.3-.45-.6-.66-.91-.57-.8-1.09-1.64-1.57-2.5-.25-.45-.49-.91-.72-1.38-.45-.92-.84-1.87-1.18-2.84-.12-.34-.24-.69-.35-1.04-.39-1.26-.69-2.55-.9-3.87-.03-.2-.05-.4-.08-.59-.02-.16-.04-.32-.06-.47.09-.94.21-1.88.36-2.81.21-1.31.47-2.6.8-3.87.33-1.31.73-2.6,1.18-3.87.21-.59.43-1.17.67-1.75.29-.72.61-1.43.94-2.13.62-1.32,1.32-2.62,2.08-3.87.8-1.34,1.69-2.63,2.63-3.87,1.03-1.35,2.13-2.64,3.32-3.87.08-.08.15-.17.23-.25l14.96-15.25,7.1-7.23,7.1-7.23,38.19-38.92c5.09-5.19,12.06-8.11,19.33-8.11h45.87c6.32,0,11.02,5.82,9.7,12ZM623.58,135.92c-5.12-2.14-9.52-5.24-13.19-9.29-3.67-4.05-6.47-8.87-8.38-14.45-1.65-4.83-2.59-10.08-2.81-15.77-.03-.89-.06-1.79-.06-2.7,0-7.99,1.32-15.73,3.92-23.21.12-.35.23-.7.36-1.05.16-.44.34-.89.52-1.33.28-.72.57-1.45.88-2.17.24-.58.49-1.15.75-1.73.03-.07.07-.15.11-.22.26-.57.54-1.13.82-1.69.24-.49.47-.99.72-1.48.21-.41.43-.8.65-1.21.17-.32.34-.63.51-.95.01-.02.02-.04.03-.06.11-.21.22-.42.34-.62.02-.04.04-.08.07-.12.05-.09.1-.18.15-.28,0-.02.02-.03.03-.05,3.82-6.69,8.52-12.73,14.13-18.1,7.42-7.11,16.1-12.77,26.04-16.98,9.94-4.2,20.49-6.31,31.66-6.31,4.71,0,9.11.4,13.21,1.18,4.3.82,8.27,2.07,11.91,3.75,1.37.63,2.67,1.33,3.93,2.06,2.68,1.55,5.12,3.32,7.33,5.31,1.61,1.46,3.1,3.04,4.47,4.73.47.58.93,1.17,1.37,1.77.56.79,1.1,1.6,1.61,2.43.76,1.24,1.45,2.55,2.09,3.89.57,1.2,1.11,2.43,1.59,3.71.43,1.15.8,2.34,1.15,3.56.32,1.12.61,2.28.86,3.46.24,1.11.45,2.25.63,3.41.07.45.15.88.21,1.33.09.68.15,1.38.22,2.08.11,1.11.19,2.23.25,3.37.05,1.13.08,2.27.08,3.42,0,6.16-.74,12.76-2.28,19.8l-11.47,53.45h-44.73l2.3-10.48c-5.05,3.18-10.44,5.74-16.18,7.61-6.35,2.07-12.58,3.1-18.69,3.1s-11.97-1.07-17.09-3.21ZM782.89,196.13l-97.11,124.24c-4.87,6.23-12.13,9.48-19.46,9.48-5.32,0-10.67-1.71-15.18-5.24l-1.8-1.4c-10.74-8.4-12.64-23.91-4.25-34.65l67.77-86.7h-67.3c-4.49,0-7.84-4.13-6.91-8.52.08-.4.17-.83.26-1.25,0,0,0-.02,0-.02.22-1.04.45-2.14.69-3.27.05-.24.1-.48.15-.72.05-.26.11-.52.16-.78.01-.05.02-.11.03-.16.4-1.88.81-3.83,1.23-5.83.11-.52.22-1.05.33-1.57.02-.09.04-.18.06-.27.1-.45.19-.91.29-1.36.09-.41.17-.82.26-1.22.05-.25.1-.49.16-.74.1-.46.19-.91.28-1.36.07-.31.13-.62.2-.94.05-.26.11-.53.16-.79.11-.55.23-1.09.34-1.63.01-.07.03-.13.04-.2.12-.59.24-1.17.36-1.74.02-.11.04-.21.07-.32.12-.56.23-1.1.34-1.64.02-.1.04-.2.06-.3.1-.48.2-.95.29-1.42.04-.17.07-.34.11-.51.09-.43.18-.86.26-1.27.03-.15.06-.29.09-.44.09-.44.18-.87.26-1.28.01-.07.03-.14.04-.21.87-4.23,4.59-7.26,8.91-7.26h109.53c11.17,0,20.51,7.52,23,17.62,2.82,7.74,1.73,16.7-3.71,23.66ZM832.63,24.99c-.02.09-.02.18-.04.27l-.77,3.57-.85,3.93-.87,4.02-.88,4.1-.9,4.18-.93,4.31-.95,4.41-.97,4.52-.19.87c-.39,1.79-2.01,3.05-3.8,3.05-.23,0-.47-.02-.7-.07h-.04c-1.23-.24-2.6-.35-4.13-.35-1.01,0-2.01.1-3.01.25-1.57.24-3.13.64-4.68,1.25-2.52,1-4.67,2.37-6.42,4.13-.12.12-.24.26-.36.39-1.63,1.7-3.16,3.77-4.57,6.27-.6,1.06-1.12,2.2-1.58,3.39-.71,1.82-1.27,3.78-1.63,5.9l-.29,1.34-11.64,54.17h-48.86l12.39-57.35c.69-3.37,1.51-6.6,2.42-9.72.23-.77.45-1.54.69-2.29.22-.7.45-1.4.68-2.09.21-.63.44-1.25.66-1.88.2-.56.4-1.11.61-1.66.18-.48.37-.94.56-1.41.15-.39.31-.78.47-1.16.12-.3.24-.6.36-.9,0-.02.02-.04.03-.06.08-.18.16-.36.23-.54,0-.02.02-.04.03-.07.02-.05.05-.1.07-.16.21-.48.43-.95.65-1.43,4.53-9.92,10.49-18.24,17.89-24.93,12.62-11.39,28.18-17.09,46.69-17.09,3.21,0,6.11.19,8.72.57.03,0,.05,0,.08.01.6.09,1.16.26,1.69.49,1.76.75,3.1,2.2,3.78,3.94.45,1.18.6,2.48.37,3.81Z"/>
      <path d="M86.37,128.25c-2.48,0-4.95.45-7.34,1.32-2.34.87-4.53,2.05-6.5,3.51-.29.22-.53.49-.81.72-1.68,1.38-3.17,2.94-4.36,4.73-1.41,2.12-2.34,4.38-2.77,6.7-.7,3.8.04,6.88,2.22,9.16.28.3.63.53.95.78,2.02,1.62,4.72,2.5,8.13,2.5,2.49,0,4.95-.45,7.3-1.34,2.31-.87,4.46-2.06,6.39-3.53,1.96-1.49,3.67-3.3,5.09-5.36,1.47-2.14,2.43-4.41,2.86-6.76.7-3.77,0-6.83-2.06-9.11-2-2.21-5.07-3.32-9.12-3.32Z"/>
      <path d="M231.56,128.25c-2.48,0-4.95.45-7.34,1.32-2.34.87-4.53,2.05-6.5,3.51-.29.22-.53.49-.81.72-1.68,1.38-3.17,2.94-4.36,4.73-1.41,2.12-2.34,4.38-2.77,6.7-.7,3.8.04,6.88,2.22,9.16.28.3.63.53.95.78,2.02,1.62,4.72,2.5,8.13,2.5,2.49,0,4.95-.45,7.3-1.34,2.31-.87,4.46-2.06,6.39-3.53,1.96-1.49,3.67-3.3,5.09-5.36,1.47-2.14,2.43-4.41,2.86-6.76.7-3.77,0-6.83-2.06-9.11-2-2.21-5.07-3.32-9.12-3.32Z"/>
      <path d="M508.79,91.34c.28.3.63.53.95.78,2.02,1.62,4.72,2.5,8.13,2.5,2.49,0,4.95-.45,7.3-1.34,2.31-.87,4.46-2.06,6.39-3.53,1.96-1.49,3.67-3.3,5.09-5.36,1.47-2.14,2.43-4.41,2.86-6.76.62-3.33.14-6.11-1.4-8.28-.2-.29-.42-.57-.66-.83-.9-.99-2.03-1.75-3.35-2.3-1.62-.67-3.54-1.02-5.77-1.02-1.19,0-2.37.11-3.55.31-1.28.22-2.54.55-3.79,1.01-2.34.87-4.53,2.05-6.5,3.51-.29.22-.53.49-.81.72-1.12.92-2.14,1.93-3.06,3.02-.46.55-.9,1.11-1.3,1.71-1.41,2.12-2.34,4.38-2.77,6.7,0,.04,0,.07-.01.11-.36,2.02-.3,3.83.17,5.43.4,1.36,1.08,2.58,2.07,3.61Z"/>
      <path d="M651.19,91.9c.28.3.63.53.95.78,2.02,1.62,4.72,2.5,8.13,2.5,2.49,0,4.95-.45,7.3-1.34,2.31-.87,4.46-2.06,6.39-3.53,1.96-1.49,3.67-3.3,5.09-5.36,1.47-2.14,2.43-4.41,2.86-6.76.65-3.51.08-6.4-1.67-8.63-.13-.16-.25-.33-.39-.49-1.03-1.13-2.34-1.97-3.91-2.52-1.5-.53-3.24-.8-5.21-.8-1.67,0-3.34.22-4.98.62-.79.19-1.58.42-2.36.7-2.34.87-4.53,2.05-6.5,3.51-.29.22-.53.49-.81.72-.81.67-1.58,1.38-2.29,2.14-.76.81-1.46,1.67-2.07,2.59-1.35,2.04-2.25,4.2-2.7,6.43-.02.09-.05.18-.07.27-.36,1.96-.33,3.73.08,5.3.38,1.47,1.09,2.76,2.14,3.86Z"/>
      <path d="M558.78,211.59c-2.48,0-4.95.45-7.34,1.32-2.34.87-4.53,2.05-6.5,3.51-.29.22-.53.49-.81.72-1.68,1.38-3.17,2.94-4.36,4.73-1.41,2.12-2.34,4.38-2.77,6.7-.7,3.8.04,6.88,2.22,9.16.28.3.63.53.95.78,2.02,1.62,4.72,2.5,8.13,2.5,2.49,0,4.95-.45,7.3-1.34,2.31-.87,4.46-2.06,6.39-3.53,1.96-1.49,3.67-3.3,5.09-5.36,1.47-2.14,2.43-4.41,2.86-6.76.7-3.77,0-6.83-2.06-9.11-2-2.21-5.07-3.32-9.12-3.32Z"/>
    </g>
  </g>
</svg>