<?xml version="1.0" encoding="UTF-8"?>
<svg id="Layer_2" data-name="Layer 2" xmlns="http://www.w3.org/2000/svg" viewBox="0 0 899.89 426.32">
  <defs>
    <style>
      .cls-1 {
        fill: #fff;
      }
    </style>
  </defs>
  <g id="Layer_1-2" data-name="Layer 1">
    <g>
      <path class="cls-1" d="M293.85,108.34c-4.28-5.96-9.98-10.59-17.09-13.88-4.39-2.03-9.26-3.43-14.61-4.2-3.32-.48-6.82-.73-10.51-.73s-7.48.25-11.11.73c-7.12.94-13.97,2.8-20.54,5.58-9.94,4.21-18.62,9.86-26.04,16.98-7.42,7.11-13.27,15.37-17.55,24.78-4.28,9.4-6.42,19.23-6.42,29.48,0,6.73.95,12.88,2.87,18.47,1.91,5.59,4.7,10.4,8.38,14.45,3.67,4.05,8.07,7.15,13.19,9.29,5.12,2.14,10.82,3.21,17.09,3.21s12.35-1.03,18.69-3.1c5.74-1.87,11.12-4.43,16.18-7.61l-2.3,10.48h44.73l11.47-53.45c2.3-10.55,2.87-20.11,1.72-28.68-1.15-8.56-3.86-15.83-8.14-21.79ZM219.79,155.23c.43-2.32,1.36-4.58,2.77-6.7,1.19-1.79,2.68-3.35,4.36-4.73.28-.23.52-.5.81-.72,1.97-1.46,4.15-2.65,6.5-3.51,2.39-.88,4.86-1.32,7.34-1.32,4.05,0,7.12,1.12,9.12,3.32,2.07,2.28,2.76,5.34,2.06,9.11-.43,2.34-1.4,4.61-2.86,6.76-1.41,2.06-3.13,3.87-5.09,5.36-1.93,1.48-4.09,2.67-6.39,3.53-2.35.89-4.81,1.34-7.3,1.34-3.41,0-6.11-.87-8.13-2.5-.32-.26-.67-.48-.95-.78-2.18-2.28-2.92-5.36-2.22-9.16Z"/>
      <polygon class="cls-1" points="552.71 164.48 552.35 164.84 552.35 164.84 552.71 164.48"/>
      <path class="cls-1" d="M895.14,79.09c-.59-1.34-1.27-2.63-2.04-3.88-.59-1.34-1.27-2.63-2.04-3.87-.59-1.34-1.28-2.64-2.04-3.88-.59-1.34-1.27-2.63-2.04-3.87-.59-1.34-1.27-2.63-2.04-3.88-.59-1.34-1.27-2.63-2.04-3.87-.59-1.34-1.27-2.63-2.04-3.88-.59-1.34-1.27-2.63-2.04-3.88-.59-1.33-1.27-2.63-2.04-3.87-.59-1.34-1.27-2.63-2.04-3.88-.59-1.34-1.27-2.63-2.04-3.88-.59-1.34-1.27-2.63-2.04-3.87-.59-1.34-1.27-2.63-2.04-3.88-.59-1.34-1.27-2.63-2.04-3.88-.58-1.32-1.26-2.61-2.02-3.84-.81-1.84-1.79-3.6-2.93-5.25-4.3-6.22-10.7-10.68-18.02-12.56-1.04-.27-2.11-.48-3.15-.64-.04,0-.16-.03-.18-.03-.95-.14-1.93-.26-2.93-.37-2.93-.31-6.06-.46-9.31-.46-24.66,0-45.89,7.87-63.08,23.4-1,.91-1.99,1.84-2.94,2.77-2.22,2.19-4.35,4.52-6.37,6.95-.86-1.41-1.76-2.78-2.71-4.1-6.76-9.41-15.74-16.75-26.7-21.82-7.75-3.59-16.46-5.86-25.9-6.75-3.07-.29-6.27-.44-9.49-.44-9.86,0-19.54,1.31-28.79,3.9-2.53.71-5.05,1.52-7.5,2.41-1.64.6-3.29,1.25-4.9,1.93-9.45,4-18.18,9.15-25.95,15.32-2.59,2.06-5.11,4.26-7.49,6.53-1.08,1.03-2.14,2.1-3.17,3.18-.88-1.47-1.82-2.89-2.8-4.26-6.76-9.41-15.75-16.75-26.7-21.82-7.75-3.59-16.46-5.86-25.9-6.75-3.07-.29-6.27-.44-9.49-.44-9.86,0-19.54,1.31-28.79,3.9-2.53.71-5.05,1.52-7.5,2.41-1.64.6-3.29,1.25-4.89,1.93-9.45,4-18.18,9.15-25.95,15.31-.46.36-.92.73-1.37,1.11-.3-.43-.6-.85-.91-1.27-1.23-1.66-2.57-3.26-4-4.76-1.74-1.83-3.64-3.55-5.63-5.11l-1.26-.99c-.51-.4-1.02-.78-1.52-1.15-.52-.38-1.03-.74-1.55-1.1-1.63-1.11-3.22-2.06-4.85-2.9-1.13-.58-2.29-1.11-3.42-1.56-.59-.24-1.19-.46-1.79-.67-1.19-.41-2.42-.76-3.66-1.06-1.22-.29-2.5-.54-3.78-.72-.63-.09-1.27-.17-1.93-.24-1.86-.19-3.77-.28-5.93-.28l-290.75-.27c-4.93,0-9.84.58-14.61,1.73-2.66.64-5.31,1.46-7.88,2.45-3.1,1.19-6.12,2.65-9,4.32-.06.04-.13.07-.19.11-1.05.61-2.08,1.26-3.1,1.95-.61-.7-1.24-1.38-1.89-2.04-.57-.58-1.17-1.15-1.77-1.69-2.41-2.18-5.06-4.09-7.89-5.67-6.39-3.57-13.67-5.45-21.05-5.45-6.27,0-12.47,1.05-18.42,3.13-1.46.51-2.93,1.09-4.35,1.72-1.42.63-2.83,1.33-4.2,2.08-1.37.75-2.72,1.57-4.01,2.43-.66.44-1.3.89-1.94,1.35-.64.46-1.27.94-1.88,1.43-1.83,1.45-3.59,3.04-5.23,4.73-1.08,1.11-2.13,2.28-3.12,3.48-5.46,6.63-9.37,14.53-11.29,22.75L2.95,141.26l-.14.58c-.81,3.66-1.45,7.31-1.91,10.86-.15,1.19-.29,2.38-.4,3.55-.77,7.93-.65,15.56.38,22.69.87,6.01,2.31,11.75,4.29,17.06.69,1.86,1.48,3.72,2.34,5.54.78,1.65,1.64,3.3,2.55,4.9.68,1.38,1.35,2.66,2.04,3.87.67,1.38,1.35,2.65,2.04,3.87.68,1.38,1.35,2.66,2.04,3.88.67,1.38,1.35,2.65,2.04,3.87.67,1.38,1.35,2.65,2.04,3.88.67,1.38,1.35,2.65,2.04,3.87.68,1.38,1.35,2.65,2.04,3.87.67,1.38,1.35,2.66,2.04,3.88.68,1.38,1.35,2.66,2.04,3.87.67,1.38,1.35,2.65,2.04,3.88.68,1.38,1.35,2.66,2.04,3.88.68,1.38,1.35,2.66,2.04,3.87.67,1.38,1.35,2.65,2.04,3.87.68,1.38,1.35,2.66,2.04,3.88.67,1.38,1.35,2.65,2.04,3.88,1.5,3.06,3.15,5.91,4.91,8.49,6.62,9.69,15.65,17.25,26.81,22.46,10.42,4.88,22.4,7.35,35.6,7.35,14.43,0,28.35-2.82,41.39-8.39,12.73-5.44,24.07-12.93,33.68-22.25,1.61-1.56,3.17-3.17,4.68-4.84,2.3,4.01,4.98,7.71,8,11.04,6.08,6.72,13.45,11.92,21.89,15.44,8.1,3.39,17.02,5.1,26.52,5.1,7.09,0,14.3-.97,21.49-2.89,3.41,1.73,7.21,2.66,11.09,2.66h44.73c7.55,0,14.5-3.54,19.05-9.15,8.17,5.74,17.75,8.76,27.81,8.76h100.69c.51,1.03,1.05,2.04,1.64,3.03.62,1.32,1.3,2.62,2.04,3.88.62,1.31,1.3,2.61,2.04,3.87.62,1.32,1.3,2.61,2.04,3.88.62,1.31,1.3,2.61,2.04,3.88.62,1.31,1.3,2.61,2.04,3.87.62,1.32,1.3,2.62,2.04,3.88.62,1.32,1.3,2.61,2.04,3.87.62,1.32,1.3,2.62,2.04,3.88.62,1.32,1.3,2.62,2.04,3.88.62,1.31,1.3,2.61,2.04,3.87.62,1.32,1.3,2.62,2.04,3.88.62,1.31,1.3,2.61,2.04,3.87.61,1.31,1.3,2.61,2.04,3.87,1.4,3,3.11,5.83,5.08,8.42,9.05,11.89,22.81,18.71,37.73,18.71h20.7c.53,1.07,1.1,2.15,1.72,3.21.61,1.3,1.3,2.6,2.04,3.87.61,1.3,1.3,2.6,2.04,3.87.61,1.3,1.3,2.6,2.04,3.88.61,1.3,1.3,2.6,2.04,3.87,6.52,13.88,18.78,23.73,33.69,27.07l2.26.51c3.5.78,7.1,1.18,10.71,1.18,7.27,0,14.56-1.63,21.08-4.73,11.06-5.25,19.56-14.19,24.21-25.21.11.19.22.39.33.58,3.29,6.92,8.02,12.82,14.05,17.54l1.8,1.41c8.6,6.72,19.34,10.42,30.25,10.42,15.24,0,29.36-6.88,38.74-18.88l97.11-124.25c10.2-13.05,13.12-30.17,7.85-45.88-1.11-4.01-2.75-7.86-4.88-11.46-.46-.98-.95-1.92-1.45-2.83,1.23-2.15,2.13-4.5,2.67-6.98l11.92-55.48c.08-.34.14-.69.2-1.02.08-.45.16-.77.23-.98.93.09,1.86.14,2.79.14,13.27,0,24.92-9.41,27.71-22.37l7.31-33.92c1.71-7.96.24-16.4-4.05-23.32ZM889.41,100.31l-7.3,33.92c-1.81,8.39-9.35,14.47-17.94,14.47-1.14,0-2.28-.11-3.41-.32-.15-.03-.61-.1-1.46-.1-.77,0-1.55.16-2.38.48-.66.26-1.16.56-1.51.91-.58.58-1.49,1.66-2.6,3.6-.69,1.2-1.2,2.74-1.51,4.57-.03.19-.07.39-.11.58l-11.93,55.52c-.69,3.21-2.43,5.96-4.79,7.96.14.29.28.6.42.9.76,1.24,1.43,2.54,2.04,3.87.76,1.24,1.43,2.54,2.04,3.88,1.81,2.97,3.22,6.21,4.16,9.69,4.32,12.6,2.04,26.3-6.17,36.8l-97.11,124.24c-7.47,9.56-18.72,15.04-30.86,15.04-8.68,0-17.24-2.95-24.09-8.3l-1.8-1.41c-5.05-3.95-8.85-8.91-11.37-14.36-.76-1.25-1.43-2.55-2.04-3.87-.76-1.26-1.43-2.55-2.04-3.88-.76-1.25-1.43-2.55-2.04-3.88-.76-1.25-1.43-2.55-2.04-3.87-.76-1.26-1.43-2.55-2.04-3.88-.76-1.26-1.43-2.55-2.04-3.87-.04-.07-.08-.14-.12-.21-.02,0-.04,0-.05,0l-3.8,16.95c-2.65,11.84-10.47,21.61-21.44,26.81-7.85,3.72-16.84,4.72-25.32,2.82l-2.23-.51c-12.41-2.78-22.12-11.21-27.04-21.98-.75-1.25-1.44-2.54-2.04-3.88-.75-1.25-1.44-2.54-2.04-3.87-.75-1.25-1.44-2.54-2.04-3.87-.75-1.25-1.44-2.54-2.04-3.88-.75-1.25-1.44-2.54-2.04-3.87-.75-1.25-1.44-2.54-2.04-3.88-.16-.26-.31-.53-.46-.79h-26.73c-11.72,0-22.64-5.4-29.77-14.76-1.67-2.2-3.06-4.56-4.17-7.02-.76-1.25-1.44-2.55-2.04-3.87-.76-1.26-1.44-2.55-2.04-3.88-.76-1.25-1.44-2.55-2.04-3.87-.76-1.26-1.44-2.55-2.04-3.87-.76-1.25-1.44-2.55-2.04-3.88-.76-1.25-1.44-2.55-2.04-3.87-.76-1.25-1.44-2.55-2.04-3.87-.76-1.25-1.44-2.55-2.04-3.88-.76-1.25-1.44-2.55-2.04-3.87-.76-1.26-1.44-2.55-2.04-3.88-.76-1.25-1.44-2.55-2.04-3.87-.76-1.26-1.44-2.55-2.04-3.87-.76-1.25-1.44-2.55-2.04-3.88-.76-1.25-1.44-2.55-2.04-3.88-.76-1.25-1.44-2.55-2.04-3.87-.12-.2-.25-.41-.37-.61h-106.73c-8.41,0-16.4-2.66-23.09-7.69-3.28-2.47-6.13-5.46-8.45-8.82l-1.17,5.47c-1.43,6.67-7.32,11.43-14.14,11.43h-44.73c-3.52,0-6.88-1.28-9.49-3.55-7.74,2.51-15.5,3.78-23.08,3.78-8.17,0-15.8-1.46-22.67-4.33-7.07-2.96-13.24-7.31-18.33-12.92-3.44-3.8-6.31-8.11-8.61-12.85-.73-1.25-1.4-2.55-2.04-3.88-.73-1.25-1.4-2.55-2.04-3.87-.39-.66-.75-1.34-1.12-2.03-3.83,5.77-8.25,11.11-13.25,15.96-8.73,8.47-19.05,15.27-30.65,20.24-11.79,5.03-24.39,7.58-37.46,7.58-11.72,0-22.28-2.16-31.36-6.41-9.52-4.45-17.19-10.86-22.79-19.05-1.62-2.37-3.04-4.89-4.32-7.53-.73-1.26-1.4-2.55-2.04-3.87-.73-1.26-1.4-2.55-2.04-3.87-.73-1.26-1.4-2.55-2.04-3.87-.73-1.26-1.4-2.55-2.04-3.87-.73-1.26-1.4-2.55-2.04-3.88-.73-1.26-1.4-2.55-2.04-3.87-.73-1.26-1.4-2.55-2.04-3.87-.73-1.26-1.4-2.55-2.04-3.87-.73-1.26-1.4-2.55-2.04-3.87-.73-1.26-1.4-2.55-2.04-3.87-.73-1.26-1.4-2.55-2.04-3.88-.73-1.26-1.4-2.55-2.04-3.87-.73-1.26-1.4-2.55-2.04-3.87-.73-1.26-1.4-2.55-2.04-3.87-.73-1.26-1.4-2.55-2.04-3.87-.84-1.45-1.63-2.95-2.36-4.49-.73-1.54-1.4-3.12-2.01-4.75-1.74-4.66-3-9.67-3.76-14.99-.92-6.36-1.03-13.14-.33-20.29.1-1.07.23-2.15.37-3.24.42-3.26,1.01-6.59,1.76-9.99.01-.05.02-.1.04-.15.01-.05.02-.1.04-.15l23.89-98.22c1.61-6.9,4.82-13.33,9.29-18.76.81-.99,1.67-1.94,2.56-2.86,1.34-1.38,2.77-2.67,4.28-3.87.51-.4,1.02-.79,1.54-1.17.52-.38,1.05-.75,1.59-1.1,1.07-.71,2.17-1.38,3.3-2s2.27-1.19,3.45-1.71c1.17-.52,2.36-.99,3.57-1.42,4.84-1.69,9.96-2.57,15.13-2.57,5.77,0,11.31,1.46,16.18,4.18,2.16,1.21,4.19,2.66,6.06,4.35.47.42.92.86,1.36,1.31.89.9,1.73,1.85,2.52,2.86.73.93,1.41,1.9,2.03,2.89.62.99,1.18,2.01,1.69,3.04.16.32.31.64.45.96.02.05.05.11.07.17,0,0,0,.01.01.02-.03-.06-.05-.12-.08-.18.39-.39.8-.75,1.2-1.12,1.41-1.32,2.9-2.56,4.44-3.72s3.16-2.23,4.83-3.21c0,0,0,0,0,0h0c2.46-1.44,5.04-2.69,7.72-3.72,2.15-.83,4.35-1.52,6.61-2.06,3.96-.95,8.07-1.45,12.28-1.45,0,0,12.94.01,33.35.03,1.51,0,3.07,0,4.66,0,2.39,0,4.86,0,7.42,0,1.7,0,3.44,0,5.21,0,3.54,0,7.22,0,11.02.01,2.84,0,5.75,0,8.72,0,6.92,0,14.16.01,21.61.02,3.19,0,6.43,0,9.69,0,2.18,0,4.37,0,6.57,0,2.2,0,4.42,0,6.65,0,5.57,0,11.19.01,16.85.02,1.13,0,2.26,0,3.4,0,2.27,0,4.54,0,6.81,0,3.41,0,6.82,0,10.22,0s6.8,0,10.19,0c3.39,0,6.76,0,10.11,0,2.24,0,4.46,0,6.68,0,2.22,0,4.42,0,6.61,0,56.98.05,104.96.1,104.96.1,1.74,0,3.37.07,4.91.23.52.05,1.02.12,1.52.19.99.14,1.96.33,2.89.55.93.22,1.84.49,2.73.79.44.15.88.32,1.32.49.87.35,1.73.74,2.58,1.17,1.27.65,2.53,1.41,3.79,2.27.42.29.84.58,1.27.9.42.31.85.63,1.28.97l1.26.98c1.62,1.27,3.14,2.65,4.55,4.12,1.15,1.21,2.22,2.48,3.2,3.81,1.64,2.22,3.05,4.6,4.21,7.1,0,0,0,0,0,0,.76,1.25,1.43,2.55,2.04,3.87.07.11.14.22.2.33,1.07-1.13,2.16-2.25,3.3-3.33,2.16-2.08,4.43-4.05,6.78-5.92,7.07-5.61,14.99-10.28,23.63-13.94,1.46-.62,2.94-1.2,4.42-1.74,2.23-.81,4.49-1.54,6.78-2.18,8.38-2.35,17.12-3.53,26.09-3.53,2.93,0,5.78.13,8.55.39,8.31.79,15.9,2.75,22.64,5.87,9.37,4.33,17.03,10.58,22.77,18.58,1.89,2.63,3.54,5.45,4.97,8.43.73,1.26,1.41,2.55,2.04,3.87.73,1.26,1.41,2.55,2.04,3.88.03.05.05.1.08.14,2.56-3.65,5.36-7.12,8.43-10.38,1.12-1.19,2.27-2.35,3.45-3.49,2.16-2.08,4.43-4.05,6.78-5.92,7.07-5.61,14.99-10.28,23.63-13.94,1.46-.62,2.94-1.2,4.42-1.74,2.23-.81,4.49-1.54,6.78-2.18,8.38-2.35,17.12-3.53,26.09-3.53,2.93,0,5.78.13,8.55.39,8.31.79,15.9,2.75,22.64,5.87,9.37,4.33,17.03,10.58,22.77,18.58,1.49,2.08,2.84,4.27,4.04,6.57.29.56.57,1.13.84,1.7.73,1.25,1.4,2.55,2.04,3.87.73,1.26,1.41,2.55,2.04,3.88.26.46.51.92.77,1.39,1.58-2.76,3.26-5.41,5.07-7.93.71-1,1.45-1.97,2.2-2.93,2.25-2.87,4.66-5.58,7.22-8.11.86-.84,1.73-1.67,2.62-2.47,15.3-13.81,34.27-20.82,56.38-20.82,2.91,0,5.68.14,8.27.41.86.09,1.71.2,2.53.32.01,0,.05,0,.06,0h.06c.73.12,1.45.26,2.15.45,4.95,1.28,9.35,4.32,12.29,8.57.85,1.22,1.56,2.53,2.13,3.88.04.1.08.21.12.32.82,1.23,1.5,2.52,2.04,3.87.82,1.23,1.5,2.52,2.04,3.87.82,1.23,1.5,2.52,2.04,3.88.82,1.23,1.5,2.52,2.04,3.87.82,1.23,1.5,2.52,2.04,3.87.82,1.23,1.5,2.52,2.04,3.87.82,1.23,1.5,2.52,2.04,3.87.82,1.23,1.5,2.52,2.04,3.87.82,1.23,1.5,2.52,2.04,3.88.82,1.23,1.5,2.52,2.04,3.87.82,1.23,1.5,2.52,2.04,3.87.82,1.23,1.5,2.52,2.04,3.87.82,1.23,1.5,2.52,2.04,3.87.82,1.23,1.5,2.52,2.04,3.87.82,1.23,1.5,2.52,2.04,3.88,3.22,4.84,4.37,10.84,3.15,16.53Z"/>
      <path class="cls-1" d="M669.36,146.04c5.74-1.87,11.13-4.43,16.18-7.61l-2.3,10.48h44.73l11.47-53.45c1.53-7.05,2.28-13.64,2.28-19.8,0-1.16-.03-2.3-.08-3.42-.06-1.14-.14-2.26-.25-3.37-.07-.69-.13-1.39-.22-2.08-.06-.45-.14-.89-.21-1.33-.18-1.16-.39-2.3-.63-3.41-.26-1.18-.54-2.33-.86-3.46-.35-1.21-.72-2.41-1.15-3.56-.48-1.28-1.01-2.51-1.59-3.71-.64-1.34-1.33-2.65-2.09-3.89-.51-.83-1.04-1.64-1.61-2.43-.44-.61-.9-1.19-1.37-1.77-1.36-1.7-2.85-3.27-4.47-4.73-2.21-1.99-4.65-3.76-7.33-5.31-1.26-.73-2.56-1.43-3.93-2.06-3.64-1.68-7.61-2.93-11.91-3.75-4.1-.78-8.5-1.18-13.21-1.18-11.16,0-21.72,2.1-31.66,6.31-9.94,4.21-18.62,9.86-26.04,16.98-5.61,5.38-10.32,11.41-14.13,18.1,0,.02-.02.03-.03.05-.05.09-.1.18-.15.28-.02.04-.04.08-.07.12-.12.21-.22.42-.34.62-.01.02-.02.04-.03.06-.17.31-.34.63-.51.95-.21.4-.44.8-.65,1.21-.25.49-.48.99-.72,1.48-.27.56-.56,1.12-.82,1.69-.03.07-.07.15-.11.22-.26.57-.5,1.15-.75,1.73-.31.72-.6,1.44-.88,2.17-.17.44-.35.88-.52,1.33-.13.35-.24.7-.36,1.05-2.61,7.48-3.92,15.22-3.92,23.21,0,.91.02,1.81.06,2.7.22,5.69,1.16,10.94,2.81,15.77,1.91,5.58,4.7,10.4,8.38,14.45,3.67,4.05,8.07,7.15,13.19,9.29,5.12,2.14,10.82,3.21,17.09,3.21s12.35-1.03,18.69-3.1ZM673.4,77.08c.78-.29,1.57-.51,2.36-.7,1.64-.4,3.3-.62,4.98-.62,1.98,0,3.71.27,5.21.8,1.57.55,2.88,1.39,3.91,2.52.14.16.26.32.39.49,1.75,2.22,2.32,5.11,1.67,8.63-.43,2.34-1.4,4.61-2.86,6.76-1.41,2.06-3.13,3.87-5.09,5.36-1.93,1.48-4.09,2.67-6.39,3.53-2.35.89-4.81,1.34-7.3,1.34-3.41,0-6.11-.87-8.13-2.5-.32-.26-.67-.48-.95-.78-1.05-1.1-1.76-2.39-2.14-3.86-.41-1.57-.44-3.33-.08-5.3.02-.09.05-.18.07-.27.45-2.23,1.35-4.39,2.7-6.43.61-.93,1.31-1.79,2.07-2.59.71-.76,1.48-1.47,2.29-2.14.28-.23.52-.5.81-.72,1.97-1.47,4.15-2.65,6.5-3.51Z"/>
      <path class="cls-1" d="M477.7,136.63c3.67,4.05,8.06,7.15,13.19,9.29,5.13,2.14,10.82,3.21,17.09,3.21s12.35-1.03,18.7-3.1c5.74-1.86,11.13-4.43,16.18-7.61l-2.3,10.47h44.74l9.41-43.88,2.05-9.57c1.44-6.62,2.2-12.84,2.29-18.68,0-.38,0-.75,0-1.12,0-1.16-.03-2.3-.08-3.42-.06-1.14-.14-2.26-.25-3.37-.07-.7-.15-1.4-.24-2.08-.06-.45-.14-.89-.21-1.33-.18-1.16-.39-2.3-.63-3.41-.26-1.18-.54-2.33-.86-3.46-.35-1.21-.72-2.41-1.15-3.56-.48-1.28-1.01-2.51-1.59-3.71-.64-1.34-1.33-2.65-2.09-3.89-.51-.83-1.04-1.65-1.61-2.43-.44-.61-.9-1.19-1.36-1.77-1.36-1.7-2.85-3.27-4.47-4.73-2.21-1.99-4.65-3.76-7.33-5.31-1.26-.73-2.56-1.43-3.93-2.06-3.64-1.68-7.62-2.93-11.92-3.75-4.1-.78-8.49-1.18-13.19-1.18-11.17,0-21.72,2.1-31.66,6.3-9.94,4.21-18.62,9.87-26.04,16.98-2.16,2.07-4.19,4.24-6.09,6.51-.05.06-.09.12-.14.17-.02.03-.04.05-.06.08-.12.14-.23.29-.35.43-.24.29-.47.58-.7.88-.31.39-.62.78-.92,1.18-.36.47-.71.94-1.06,1.42-.4.56-.8,1.12-1.19,1.69-.47.68-.92,1.36-1.37,2.05-.53.83-1.05,1.67-1.56,2.52-.31.52-.63,1.04-.92,1.58,0,0,0,0,0,0,0,0,0,0,0,0-.18.48-.38.96-.58,1.43-.48,1.16-1.03,2.3-1.63,3.41-.47.88-.96,1.75-1.5,2.6-.16.38-.3.76-.46,1.13-3.61,8.69-5.44,17.74-5.44,27.15,0,6.73.96,12.88,2.87,18.47,1.91,5.58,4.71,10.4,8.37,14.45ZM534.79,75.51c1.18-.2,2.36-.31,3.55-.31,2.23,0,4.15.35,5.77,1.02,1.32.55,2.45,1.31,3.35,2.3.24.27.46.54.66.83,1.54,2.17,2.01,4.95,1.4,8.28-.43,2.34-1.4,4.61-2.86,6.76-1.41,2.06-3.13,3.87-5.09,5.36-1.93,1.48-4.09,2.67-6.39,3.53-2.35.89-4.81,1.34-7.3,1.34-3.41,0-6.11-.87-8.13-2.5-.32-.26-.67-.48-.95-.78-.99-1.04-1.67-2.25-2.07-3.61-.46-1.6-.53-3.41-.17-5.43,0-.04,0-.07.01-.11.43-2.32,1.36-4.58,2.77-6.7.4-.6.84-1.16,1.3-1.71.92-1.1,1.95-2.1,3.06-3.02.28-.23.52-.5.81-.72,1.97-1.46,4.15-2.65,6.5-3.51,1.24-.46,2.51-.79,3.79-1.01Z"/>
      <path class="cls-1" d="M146.11,103.18c-3.75-3.9-8.34-6.84-13.76-8.83-5.43-1.99-11.58-2.98-18.47-2.98-4.74,0-9.49.5-14.22,1.49-4.64.97-9.08,2.32-13.35,4.02l5.06-18.94,1.52-5.68,1.41-5.28,1.32-4.94.35-1.3.89-3.35,1.18-4.4.96-3.6.15-.55.31-1.18c.23-.93.37-1.85.46-2.77.12-1.29.11-2.56-.03-3.8-.15-1.3-.43-2.56-.84-3.77-.45-1.35-1.05-2.65-1.79-3.85-.9-1.47-1.99-2.8-3.24-3.98-1.84-1.72-4.04-3.07-6.48-3.94-1.95-.69-4.06-1.07-6.28-1.07h0c-13.42,0-25.2,8.49-29.61,20.89-.4,1.12-.74,2.28-1.02,3.46l-23.91,98.29c-.07.33-.13.65-.2.99-1.56,7.41-2.24,14.34-2,20.77.09,2.25.28,4.44.59,6.57.13.93.29,1.85.46,2.75.43,2.3.98,4.51,1.64,6.62.55,1.77,1.18,3.48,1.9,5.11.61,1.4,1.3,2.73,2.02,4.03.63,1.12,1.29,2.22,2.01,3.27.03.04.06.08.09.13.68.98,1.41,1.92,2.17,2.83.71.85,1.46,1.67,2.24,2.46.74.75,1.51,1.48,2.32,2.17.76.65,1.54,1.29,2.36,1.89.8.59,1.62,1.16,2.47,1.7,1.67,1.06,3.44,2.04,5.33,2.92,7.19,3.36,15.6,5.05,25.23,5.05,11.16,0,21.76-2.14,31.77-6.42,10.01-4.28,18.77-10.06,26.27-17.32,7.49-7.26,13.42-15.71,17.78-25.35,4.36-9.63,6.54-19.8,6.54-30.51,0-7.18-1-13.61-2.98-19.27-1.99-5.66-4.86-10.44-8.6-14.34ZM74.6,155.23c.43-2.32,1.36-4.58,2.77-6.7,1.19-1.79,2.68-3.35,4.36-4.73.28-.23.52-.5.81-.72,1.97-1.46,4.15-2.65,6.5-3.51,2.39-.88,4.86-1.32,7.34-1.32,4.05,0,7.12,1.12,9.12,3.32,2.07,2.28,2.76,5.34,2.06,9.11-.43,2.34-1.4,4.61-2.86,6.76-1.41,2.06-3.13,3.87-5.09,5.36-1.93,1.48-4.09,2.67-6.39,3.53-2.35.89-4.81,1.34-7.3,1.34-3.41,0-6.11-.87-8.13-2.5-.32-.26-.67-.48-.95-.78-2.18-2.28-2.92-5.36-2.22-9.16Z"/>
      <path class="cls-1" d="M773.6,164.84h-109.53c-4.32,0-8.04,3.03-8.91,7.26-.01.07-.03.14-.04.21-.09.42-.17.84-.26,1.28-.03.14-.06.29-.09.44-.09.42-.17.84-.26,1.27-.03.17-.07.34-.11.51-.1.47-.19.94-.29,1.42-.02.1-.04.2-.06.3-.11.54-.22,1.08-.34,1.64-.02.1-.04.21-.07.32-.12.57-.24,1.15-.36,1.74-.01.06-.03.13-.04.2-.11.54-.23,1.08-.34,1.63-.05.26-.11.52-.16.79-.06.31-.13.62-.2.94-.09.45-.19.91-.28,1.36-.05.25-.1.49-.16.74-.09.41-.17.81-.26,1.22-.1.45-.19.91-.29,1.36-.02.09-.04.18-.06.27-.11.53-.22,1.05-.33,1.57-.42,1.99-.83,3.95-1.23,5.83-.01.05-.02.11-.03.16-.05.26-.11.52-.16.78-.05.24-.1.48-.15.72-.24,1.14-.47,2.23-.69,3.27,0,0,0,.01,0,.02-.09.42-.18.84-.26,1.25-.93,4.39,2.42,8.52,6.91,8.52h67.3l-67.77,86.7c-8.39,10.74-6.49,26.25,4.25,34.65l1.8,1.4c4.51,3.53,9.87,5.24,15.18,5.24,7.34,0,14.6-3.26,19.46-9.48l97.11-124.24c5.44-6.97,6.53-15.93,3.71-23.66-2.49-10.1-11.83-17.62-23-17.62Z"/>
      <path class="cls-1" d="M473.22,73.53c-.11.24-.23.47-.34.71-.18.4-.35.8-.53,1.19-.25.38-.5.76-.76,1.13-.06.09-.12.18-.18.27.06-.09.12-.18.18-.27.26-.38.52-.75.77-1.13.17-.4.34-.8.52-1.19.11-.24.23-.47.34-.71Z"/>
      <path class="cls-1" d="M629.86,164.84h-45.87c-7.27,0-14.24,2.92-19.33,8.11l-38.19,38.92-7.1,7.23-7.1,7.23-14.96,15.25c-.08.08-.15.17-.23.25-1.19,1.23-2.29,2.53-3.32,3.87-.95,1.25-1.83,2.54-2.63,3.87-.76,1.26-1.45,2.55-2.08,3.87-.33.7-.64,1.41-.94,2.13-.24.58-.46,1.16-.67,1.75-.45,1.27-.85,2.56-1.18,3.87-.33,1.28-.59,2.57-.8,3.87-.15.93-.27,1.87-.36,2.81.02.16.04.32.06.47.03.2.05.4.08.59.21,1.32.51,2.62.9,3.87.11.35.23.69.35,1.04.34.97.74,1.92,1.18,2.84.23.47.47.92.72,1.38.48.86,1.01,1.69,1.57,2.5.22.31.44.61.66.91.77,1,1.6,1.95,2.49,2.84.04.04.09.09.14.13.82.8,1.68,1.55,2.59,2.25.76.58,1.55,1.13,2.37,1.63.2.12.41.24.62.36,1.05.61,2.15,1.15,3.28,1.62,1.18.49,2.4.9,3.66,1.22,1.37.35,2.78.6,4.22.73.86.08,1.74.13,2.62.13h49.54s-.03,0-.05,0l-3.79,16.88c-.29,1.28-.47,2.56-.55,3.82,0,0,0,0,0,0-.77,11.92,7.22,22.96,19.24,25.66l2.22.49c5.59,1.25,11.17.51,15.97-1.77,6.62-3.14,11.79-9.2,13.52-16.91l1.35-6.03,4.25-18.96.09-.42s-.02-.03-.03-.05l.38-2.73c9.13,0,17.02-6.4,18.9-15.34l1.93-9.18,1.31-6.23c1.64-7.8-4.31-15.13-12.28-15.13l4.33-20.18,1.55-7.23,1.55-7.23,7.52-35.03c1.33-6.17-3.38-12-9.7-12ZM549.23,247.74c-2.18-2.28-2.92-5.36-2.22-9.16.43-2.32,1.36-4.58,2.77-6.7,1.19-1.79,2.68-3.35,4.36-4.73.28-.23.52-.5.81-.72,1.97-1.47,4.15-2.65,6.5-3.51,2.39-.88,4.86-1.32,7.34-1.32,4.05,0,7.12,1.12,9.12,3.32,2.07,2.28,2.76,5.34,2.06,9.11-.43,2.34-1.4,4.61-2.86,6.76-1.41,2.06-3.13,3.87-5.09,5.36-1.93,1.48-4.09,2.67-6.39,3.53-2.35.89-4.81,1.34-7.3,1.34-3.41,0-6.11-.87-8.13-2.5-.32-.26-.67-.48-.95-.78Z"/>
      <path class="cls-1" d="M838.48,27.24c-.53-.23-1.09-.4-1.69-.49-.03,0-.05,0-.08-.01-2.6-.38-5.5-.57-8.72-.57-18.51,0-34.07,5.7-46.69,17.09-7.4,6.69-13.36,15-17.89,24.93-.22.47-.44.95-.65,1.43-.02.05-.05.1-.07.16,0,.02-.02.04-.03.07-.08.18-.16.36-.23.54,0,.02-.02.04-.03.06-.12.29-.24.6-.36.9-.16.38-.32.77-.47,1.16-.19.47-.37.94-.56,1.41-.21.55-.41,1.11-.61,1.66-.22.62-.45,1.24-.66,1.88-.23.69-.46,1.39-.68,2.09-.24.76-.47,1.52-.69,2.29-.91,3.12-1.73,6.35-2.42,9.72l-12.39,57.35h48.86l11.64-54.17.29-1.34c.37-2.13.93-4.08,1.63-5.9.46-1.19.97-2.33,1.58-3.39,1.42-2.49,2.95-4.57,4.57-6.27.12-.12.24-.26.36-.39,1.75-1.76,3.9-3.13,6.42-4.13,1.55-.61,3.11-1.01,4.68-1.25,1-.15,2-.25,3.01-.25,1.53,0,2.9.12,4.13.35h.04c.24.05.47.07.7.07,1.78,0,3.41-1.26,3.8-3.05l.19-.87.97-4.52.95-4.41.93-4.31.9-4.18.88-4.1.87-4.02.85-3.93.77-3.57c.02-.09.03-.18.04-.27.23-1.32.08-2.63-.37-3.81-.67-1.75-2.02-3.19-3.78-3.94Z"/>
      <path class="cls-1" d="M552.35,164.84h-168.02l69.01-88.29,3.02-3.87,2.42-3.1c.2-.26.38-.51.57-.77.08-.11.17-.22.25-.34,0,0,0-.01,0-.02,0,0,0-.01.01-.02.56-.81,1.06-1.65,1.51-2.51.17-.33.33-.66.48-.99.09-.19.19-.37.28-.56.34-.77.66-1.55.92-2.34,0,0,0-.01,0-.02,0,0,0,0,0-.01.1-.31.18-.62.26-.94.35-1.26.61-2.55.76-3.84.14-1.24.19-2.49.15-3.74-.05-1.24-.18-2.48-.41-3.7-.24-1.26-.57-2.51-1.01-3.73-.47-1.31-1.04-2.59-1.73-3.82-.8-1.41-1.76-2.75-2.84-4.01-1.03-1.19-2.17-2.3-3.45-3.3l-1.07-.84-.73-.57c-1.89-1.47-3.92-2.61-6.04-3.45-2.95-1.18-6.05-1.77-9.14-1.77-1.82,0-295.2.47-295.2.47-2.32,0-4.58.27-6.77.77-6.85,1.57-12.89,5.47-17.13,10.92-.25.32-.47.65-.71.98,0,0,0,0,0,0,0,0,0,0,0,0-.11.15-.22.3-.33.45-.04.05-.07.1-.11.15,0,0,0,0,0,0-.17.25-.33.51-.49.77-.17.27-.35.55-.51.83,0,0,0,0,0,0-.1.17-.22.34-.31.51-.33.58-.63,1.19-.92,1.8-.35.72-.67,1.46-.96,2.21-.03.07-.06.13-.08.2,0,0,0,0,0,0,0,0,0,0,0,.01-.13.85-.29,1.7-.49,2.54-.01.05-.02.1-.03.15-.02.1-.05.21-.08.3l-.66,2.49-.31,1.15s0,.02,0,.02v.02c-.06.71-.07,1.41-.05,2.11.04,1.23.2,2.43.47,3.59.3,1.31.73,2.57,1.28,3.77.65,1.4,1.46,2.72,2.41,3.93,1.36,1.72,3,3.2,4.87,4.38,2.24,1.41,4.81,2.38,7.59,2.76.88.12,1.77.19,2.68.19h256.7l-.54.69-72.3,92.49c-5.99,7.68-6.71,17.78-2.73,25.99,2.9,9.76,12.02,16.9,22.84,16.9h170.54l46.15-47.03Z"/>
    </g>
  </g>
</svg>