<svg width="1086" height="671" viewBox="0 0 1086 671" fill="none" xmlns="http://www.w3.org/2000/svg">
<path d="M1065.22 312.93C1080.93 324.327 1080.92 346.669 1065.22 358.069C1025.92 386.608 993.169 411.359 967.755 437.225L966.55 438.458L966.537 438.471L966.525 438.483C943.584 461.896 926.482 486.367 911.436 517.738L909.986 520.796L909.985 520.798C899.907 542.285 877.201 555.762 852.588 555.762L805.289 555.762C740.254 621.129 646.745 662 542.997 662C439.249 662 345.749 621.128 280.706 555.762L233.415 555.762C208.802 555.762 186.095 542.285 176.017 520.798L176.016 520.796C160.618 487.948 143.15 462.651 119.476 438.481L119.452 438.458C93.8716 412.145 60.7023 387.063 20.7734 358.07L20.7715 358.068C5.07917 346.667 5.07231 324.327 20.7734 312.93L28.1816 307.538C64.8196 280.797 95.4699 257.21 119.451 232.535L119.477 232.51C142.78 208.726 160.07 183.843 175.292 151.738L176.016 150.204C186.095 128.706 208.804 115.238 233.415 115.238L280.706 115.238C345.749 49.8717 439.249 8.99997 542.997 8.99998C646.745 9.00005 740.254 49.8711 805.289 115.238L852.588 115.238C877.199 115.238 899.907 128.705 909.986 150.203L909.986 150.204C925.384 183.054 942.844 208.349 966.524 232.508L966.537 232.521L966.551 232.535C992.131 258.856 1025.29 283.938 1065.22 312.93Z" fill="#202912" stroke="#6A2630" stroke-width="18"/>
</svg>
